Simulation
nRows=45
nColumns=15
endheader
time  TH_x TH_y TH_z SC_y  SC_z  SC_x  AC_y  AC_z  AC_x  GH_y  GH_z  GH_yy  EL_x  PS_y
1.55  0.000000  0.000000  0.000000  -32.99198999866796  7.3693609310199415  22.46029692648642  52.064827633714465  8.964814746270763  -4.780125076553771  23.052335967868213  56.142013644327754  -19.41125714392737  17.939957824253987  0.000000
1.581  0.000000  0.000000  0.000000  -33.315093894976776  7.65586659421423  23.0059786833253  52.02723176102095  9.064606423783605  -4.506195210839622  22.854938317411126  56.62803903328767  -19.428681056898565  17.913565704849862  0.000000
1.612  0.000000  0.000000  0.000000  -33.61426285848289  7.905418380773643  23.443733705415752  52.02060040358031  9.149025100263513  -4.224151298478239  22.642399331525276  57.07902583211103  -19.408241689000658  17.898489866132945  0.000000
1.643  0.000000  0.000000  0.000000  -33.88498994295639  8.108124084369667  23.778869943625246  52.04218638503665  9.227294937475639  -3.9525395698777754  22.427531721061126  57.47881526119267  -19.368749815489842  17.89990983041402  0.000000
1.674  0.000000  0.000000  0.000000  -34.126246668451365  8.262002723091832  24.024048277672385  52.08122596554932  9.305780501617075  -3.7076577784025777  22.236865368422336  57.802855592712085  -19.330364324631176  17.9170914286041  0.000000
1.705  0.000000  0.000000  0.000000  -34.34214173933382  8.3730751461804  24.19686998488917  52.125042673375845  9.383833212404625  -3.501175248847345  22.099465423315074  58.026255080776046  -19.30450083936365  17.944715621562143  0.000000
1.736  0.000000  0.000000  0.000000  -34.5311123022712  8.447687876207565  24.309327304818552  52.16283965731496  9.455523886591498  -3.3430553303933905  22.036158502240767  58.13206055481531  -19.295340536588363  17.976646796483465  0.000000
1.767  0.000000  0.000000  0.000000  -34.685977561885686  8.49003857770045  24.36802404009295  52.18729876466164  9.511412218425692  -3.243482518691598  22.054947233584805  58.11464799425165  -19.303148108232485  18.007913925325358  0.000000
1.798  0.000000  0.000000  0.000000  -34.79067220164761  8.500255341960436  24.370770441193503  52.193782307451464  9.541524035518139  -3.2128764659829896  22.153169162036225  57.9779169718015  -19.32952330418123  18.035230121234697  0.000000
1.829  0.000000  0.000000  0.000000  -34.83037750707621  8.475852795162323  24.314165006240334  52.18156175541295  9.538052713348149  -3.259227708134454  22.32256342870359  57.7296335730603  -19.381007655268952  18.056517220929187  0.000000
1.8599999999999999  0.000000  0.000000  0.000000  -34.79444807108639  8.411382795593207  24.195303111376916  52.15568337568988  9.497328511479314  -3.385320890728068  22.553555188599947  57.37507618787642  -19.473887267501425  18.070811108359393  0.000000
1.891  0.000000  0.000000  0.000000  -34.68385159613677  8.299371499166739  24.016856243202245  52.12877968331531  9.419438413662503  -3.5876918208505466  22.83558998033718  56.91691823807174  -19.62987407169893  18.077902282315367  0.000000
1.922  0.000000  0.000000  0.000000  -34.506059570305624  8.133063764907916  23.7804026851623  52.11805191089059  9.30422438560735  -3.856813157768148  23.155672894970568  56.3598217265473  -19.86687089615386  18.078832640774305  0.000000
1.953  0.000000  0.000000  0.000000  -34.27695609216541  7.91186839220433  23.48524700147466  52.13934686349544  9.148039500232287  -4.1772412522516245  23.49871634120993  55.7148047471175  -20.18371985308715  18.07728926183773  0.000000
1.984  0.000000  0.000000  0.000000  -34.0115323023935  7.640774289144588  23.123099499099315  52.20009290443037  8.945719193312218  -4.530935085565198  23.848985365924815  54.998795195564455  -20.554652201642348  18.081736334738032  0.000000
2.015  0.000000  0.000000  0.000000  -33.725432135214916  7.330412969624693  22.68397628452218  52.29645367912703  8.693854383456143  -4.898105307766873  24.194587272860932  54.22917742217062  -20.937729940592384  18.103680293198362  0.000000
2.046  0.000000  0.000000  0.000000  -33.426977128447675  6.9895269087833904  22.157858694818874  52.416620539390294  8.395870492008646  -5.261738949157986  24.528844061645888  53.41930620033133  -21.29296856428721  18.152189715759814  0.000000
2.077  0.000000  0.000000  0.000000  -33.122800635422  6.62209112407814  21.54236711660742  52.54716600123631  8.063109708182802  -5.608014915810743  24.849507866999158  52.57628544335819  -21.594831273864163  18.229499716048192  0.000000
2.108  0.000000  0.000000  0.000000  -32.8191994524791  6.22960352112433  20.84229205765577  52.67858391909234  7.709304763249623  -5.92725918459911  25.15731045913294  51.70222288363443  -21.8369705161586  18.331111450615357  0.000000
2.139  0.000000  0.000000  0.000000  -32.52520542106604  5.811741647094171  20.071256146423345  52.805181244551896  7.347186679016653  -6.214472670420553  25.452478255302648  50.7970294711721  -22.022435165735786  18.449393100207303  0.000000
2.17  0.000000  0.000000  0.000000  -32.244988516088  5.368452014269865  19.241602735192416  52.921579873799274  6.986868074884198  -6.469021017231198  25.734580307131488  49.86254404356685  -22.15938164357725  18.576026889734347  0.000000
2.201  0.000000  0.000000  0.000000  -31.982361466467413  4.9025255123958456  18.36561764297307  53.022007464194694  6.634677707008751  -6.691243314235313  26.001454569176282  48.9018848615759  -22.252818962478596  18.70404996300796  0.000000
2.232  0.000000  0.000000  0.000000  -31.736887729553615  4.41770941639059  17.451856329160087  53.10083525540669  6.295406594293636  -6.88240939147687  26.250195636512174  47.919010645975895  -22.305477596492057  18.827590155561836  0.000000
2.263  0.000000  0.000000  0.000000  -31.50878189674673  3.918782310939122  16.509994237588568  53.15396359830548  5.97287970148625  -7.043445492372115  26.477223997976274  46.91662551880943  -22.316147361727825  18.94191051415249  0.000000
2.294  0.000000  0.000000  0.000000  -31.29576371431324  3.411080399289546  15.549497113297038  53.17886868753105  5.671018933491302  -7.175687638614423  26.681477627206785  45.89497292657099  -22.282307242185666  19.043785860493617  0.000000
2.325  0.000000  0.000000  0.000000  -31.098288429280178  2.901364412335783  14.581838335937718  53.1751739073633  5.3928677693186655  -7.280000818118048  26.86438170676431  44.85239754648355  -22.200632383350275  19.132090814091267  0.000000
2.356  0.000000  0.000000  0.000000  -30.91495525072116  2.396593436220866  13.617407181751163  53.14379972779767  5.141309613423212  -7.357912328278144  27.030218714145033  43.78530853398312  -22.070136371497224  19.20704550328306  0.000000
2.387  0.000000  0.000000  0.000000  -30.745087013933496  1.9042570974291269  12.665573847292002  53.08579560308239  4.916685810752673  -7.410346558497701  27.182662550522608  42.690465571523966  -21.891473907789045  19.270317204675024  0.000000
2.418  0.000000  0.000000  0.000000  -30.585453632958583  1.4315575788683954  11.732135073095833  53.00202394830447  4.718052674257714  -7.438070062639947  27.326782628829562  41.56447854422286  -21.67031738894588  19.32465712659543  0.000000
2.449  0.000000  0.000000  0.000000  -30.43382986185329  0.984599806868702  10.820883202003792  52.8932591982631  4.5435739168897165  -7.441129586380817  27.46579890767433  40.405225921577106  -21.41444029998775  19.373408048431497  0.000000
2.48  0.000000  0.000000  0.000000  -30.28723314316706  0.56772363974945  9.934740755440382  52.76175679545354  4.393725990608084  -7.420387007536256  27.604371073182236  39.209261326191616  -21.13587022436236  19.41931985458491  0.000000
2.511  0.000000  0.000000  0.000000  -30.146586351923855  0.18226666885270876  9.077379385985097  52.61267274418916  4.270387999461937  -7.377560354259091  27.74633851938222  37.974806111660236  -20.848904353418167  19.463527243390622  0.000000
2.542  0.000000  0.000000  0.000000  -30.013001872530815  -0.17274459838133804  8.253755678000033  52.452629728167615  4.1770259023849565  -7.315867952283159  27.898364059213467  36.69957086538565  -20.57080076235804  19.506662116173548  0.000000
2.573  0.000000  0.000000  0.000000  -29.888605609982275  -0.49771041274123684  7.468730334489929  52.28835054188091  4.114736460273148  -7.238358886784288  28.066404160728933  35.38416339688258  -20.31591335337913  19.547652223483254  0.000000
2.604  0.000000  0.000000  0.000000  -29.77253223807285  -0.7906598577042687  6.726751996681328  52.12310710816363  4.081971440188074  -7.1467986261226475  28.257344170568544  34.029137514367356  -20.09209623358587  19.58751225643652  0.000000
2.635  0.000000  0.000000  0.000000  -29.662024813343496  -1.0472389432757951  6.029387814450099  51.95900556396695  4.073637440853943  -7.041335306877805  28.47486028010464  32.63867676621482  -19.897048898587457  19.625253956305485  0.000000
2.666  0.000000  0.000000  0.000000  -29.551543319000473  -1.2630045957714293  5.376506548063048  51.79380085375837  4.083907267140572  -6.920553308786039  28.72206968098038  31.217332068802634  -19.722680918202673  19.663076057955298  0.000000
2.697  0.000000  0.000000  0.000000  -29.438986249801463  -1.4363263942561026  4.764584557511478  51.62870481469541  4.108398785315374  -6.784781225655091  28.999291123613183  29.77525770230142  -19.558201449144285  19.700713318594083  0.000000
2.7279999999999998  0.000000  0.000000  0.000000  -29.325051781717136  -1.5703921197783264  4.191475952413959  51.461758344316735  4.143796266576206  -6.635754482912756  29.304463292071645  28.32420829599012  -19.394001339129577  19.743086930467182  0.000000
2.759  0.000000  0.000000  0.000000  -29.21531889144916  -1.6714933161627687  3.653536121680683  51.29778601350239  4.189399006403352  -6.478469494070294  29.633450333739578  26.880786682943047  -19.220174192408862  19.790985376117707  0.000000
2.79  0.000000  0.000000  0.000000  -29.112374120139215  -1.7459040869851588  3.1513857081201624  51.13422497196604  4.243884493858243  -6.317678170308525  29.97844669921621  25.457357183604422  -19.02761009803366  19.85309109689775  0.000000
2.821  0.000000  0.000000  0.000000  -29.018052236192336  -1.7970258111727855  2.6853417323773825  50.97636576751914  4.308722912039293  -6.15857619565149  30.32795168796939  24.064028462876724  -18.798481116757262  19.934967715456455  0.000000
2.852  0.000000  0.000000  0.000000  -28.92410458664978  -1.8247131530924616  2.261326620052007  50.81858098589495  4.383411503450852  -6.005498182204402  30.666684899078465  22.701318269028327  -18.5172669349596  20.053032696910645  0.000000
2.883  0.000000  0.000000  0.000000  -28.8264757465496  -1.828566066012647  1.883687286732892  50.66697654760878  4.4705408055805895  -5.861856380655173  30.978300527693953  21.3688078919085  -18.15750311585853  20.216839173467406  0.000000
2.914  0.000000  0.000000  0.000000  -28.71224391211358  -1.8089788143193837  1.5593830232943626  50.517040965313704  4.568495060251661  -5.733990885943872  31.25728242389209  20.06221748176479  -17.71875301297642  20.43909117392843  0.000000
